<svg width="542" height="167" viewBox="0 0 542 167" fill="none" xmlns="http://www.w3.org/2000/svg">
<path fill-rule="evenodd" clip-rule="evenodd" d="M90.6625 83.5C104.104 83.5 115 72.6429 115 59.25C115 45.8571 104.104 35 90.6625 35C90.5712 35 90.48 35.0005 90.389 35.0015V35H66.3251V59.25V83.5H90.389V83.4985C90.48 83.4995 90.5712 83.5 90.6625 83.5Z" fill="black"/>
<path fill-rule="evenodd" clip-rule="evenodd" d="M90.6625 132C104.104 132 115 121.143 115 107.75C115 94.357 104.104 83.4999 90.6625 83.4999C90.5712 83.4999 90.48 83.5004 90.389 83.5014V83.4999H66.3251V107.75V132H90.389V131.998C90.48 131.999 90.5712 132 90.6625 132Z" fill="black"/>
<path fill-rule="evenodd" clip-rule="evenodd" d="M15 83.5V59.25V58.7052V35H39.0639V35.0015C39.155 35.0005 39.2461 35 39.3374 35C52.5958 35 63.378 45.5639 63.6687 58.7052H63.6748V59.25V83.5001H15V83.5Z" fill="black"/>
<rect x="15.1263" y="83.4999" width="48.6748" height="48.5" fill="black"/>
<path d="M169.11 87.4328V116.854H155V65.9635H168.447V74.9422H169.044C170.17 71.9824 172.058 69.6411 174.708 67.9182C177.357 66.1733 180.57 65.3008 184.346 65.3008C187.879 65.3008 190.959 66.0739 193.587 67.62C196.215 69.1662 198.257 71.375 199.715 74.2464C201.172 77.0957 201.901 80.4972 201.901 84.451V116.854H187.791V86.969C187.813 83.8546 187.018 81.4249 185.406 79.68C183.794 77.913 181.575 77.0295 178.748 77.0295C176.849 77.0295 175.171 77.4381 173.714 78.2553C172.279 79.0726 171.152 80.2653 170.335 81.8336C169.54 83.3797 169.132 85.2461 169.11 87.4328Z" fill="black"/>
<path d="M213.286 116.854V49H227.396V74.5114H227.827C228.445 73.142 229.339 71.7505 230.51 70.3368C231.702 68.9011 233.248 67.7084 235.147 66.7586C237.068 65.7868 239.452 65.3008 242.301 65.3008C246.011 65.3008 249.433 66.2727 252.569 68.2164C255.704 70.1381 258.21 73.0426 260.087 76.9301C261.964 80.7954 262.903 85.6437 262.903 91.4749C262.903 97.1515 261.986 101.945 260.154 105.854C258.343 109.742 255.87 112.69 252.734 114.7C249.621 116.688 246.132 117.682 242.268 117.682C239.53 117.682 237.2 117.229 235.279 116.324C233.38 115.418 231.823 114.281 230.609 112.911C229.394 111.52 228.467 110.117 227.827 108.703H227.197V116.854H213.286ZM227.098 91.4086C227.098 94.4347 227.518 97.0742 228.357 99.3271C229.196 101.58 230.41 103.336 232 104.595C233.59 105.832 235.522 106.45 237.796 106.45C240.093 106.45 242.036 105.821 243.626 104.562C245.216 103.281 246.419 101.514 247.236 99.2609C248.075 96.9858 248.495 94.3684 248.495 91.4086C248.495 88.4709 248.086 85.8867 247.269 83.6558C246.452 81.4249 245.249 79.68 243.659 78.421C242.069 77.162 240.115 76.5325 237.796 76.5325C235.5 76.5325 233.557 77.1399 231.967 78.3547C230.399 79.5696 229.196 81.2924 228.357 83.5233C227.518 85.7541 227.098 88.3826 227.098 91.4086Z" fill="black"/>
<path d="M286.428 49V116.854H272.318V49H286.428Z" fill="black"/>
<path d="M320.717 117.848C315.572 117.848 311.123 116.754 307.369 114.568C303.637 112.359 300.755 109.289 298.724 105.357C296.693 101.403 295.677 96.8201 295.677 91.6074C295.677 86.3505 296.693 81.7562 298.724 77.8246C300.755 73.8709 303.637 70.8007 307.369 68.614C311.123 66.4052 315.572 65.3008 320.717 65.3008C325.862 65.3008 330.3 66.4052 334.032 68.614C337.786 70.8007 340.678 73.8709 342.71 77.8246C344.741 81.7562 345.757 86.3505 345.757 91.6074C345.757 96.8201 344.741 101.403 342.71 105.357C340.678 109.289 337.786 112.359 334.032 114.568C330.3 116.754 325.862 117.848 320.717 117.848ZM320.783 106.914C323.124 106.914 325.078 106.252 326.646 104.926C328.213 103.579 329.395 101.746 330.19 99.4265C331.007 97.1073 331.415 94.4678 331.415 91.508C331.415 88.5483 331.007 85.9088 330.19 83.5895C329.395 81.2703 328.213 79.437 326.646 78.0897C325.078 76.7423 323.124 76.0686 320.783 76.0686C318.42 76.0686 316.433 76.7423 314.821 78.0897C313.231 79.437 312.028 81.2703 311.211 83.5895C310.416 85.9088 310.019 88.5483 310.019 91.508C310.019 94.4678 310.416 97.1073 311.211 99.4265C312.028 101.746 313.231 103.579 314.821 104.926C316.433 106.252 318.42 106.914 320.783 106.914Z" fill="black"/>
<path d="M377.918 117.848C372.707 117.848 368.225 116.743 364.471 114.535C360.739 112.304 357.869 109.211 355.859 105.258C353.872 101.304 352.878 96.7539 352.878 91.6074C352.878 86.3947 353.883 81.8225 355.892 77.8909C357.924 73.9372 360.805 70.8559 364.537 68.6471C368.269 66.4163 372.707 65.3008 377.852 65.3008C382.29 65.3008 386.177 66.107 389.511 67.7194C392.845 69.3318 395.484 71.5958 397.427 74.5114C399.37 77.427 400.441 80.8506 400.64 84.7823H387.325C386.95 82.2422 385.956 80.1991 384.344 78.6529C382.754 77.0847 380.667 76.3006 378.084 76.3006C375.898 76.3006 373.988 76.8969 372.354 78.0897C370.742 79.2603 369.483 80.9721 368.578 83.2251C367.673 85.478 367.22 88.2059 367.22 91.4086C367.22 94.6555 367.662 97.4165 368.545 99.6916C369.45 101.967 370.72 103.701 372.354 104.893C373.988 106.086 375.898 106.682 378.084 106.682C379.696 106.682 381.142 106.351 382.423 105.688C383.726 105.026 384.797 104.065 385.636 102.806C386.497 101.525 387.06 99.9897 387.325 98.2006H400.64C400.419 102.088 399.359 105.512 397.46 108.471C395.583 111.409 392.989 113.706 389.677 115.363C386.364 117.019 382.445 117.848 377.918 117.848Z" fill="black"/>
<path d="M422.459 102.21L422.492 85.2793H424.546L440.842 65.9635H457.038L435.145 91.5412H431.799L422.459 102.21ZM409.674 116.854V49H423.784V116.854H409.674ZM441.471 116.854L426.5 94.6887L435.906 84.716L457.999 116.854H441.471Z" fill="black"/>
<path d="M506.29 80.4752L493.373 81.2703C493.152 80.1659 492.677 79.172 491.949 78.2885C491.22 77.3829 490.259 76.665 489.067 76.1349C487.897 75.5827 486.494 75.3066 484.86 75.3066C482.674 75.3066 480.831 75.7704 479.329 76.6981C477.828 77.6037 477.077 78.8186 477.077 80.3426C477.077 81.5575 477.563 82.5845 478.534 83.4239C479.506 84.2632 481.173 84.9369 483.536 85.4449L492.744 87.3003C497.69 88.3163 501.377 89.9508 503.806 92.2038C506.235 94.4567 507.45 97.4165 507.45 101.083C507.45 104.418 506.467 107.345 504.502 109.863C502.559 112.381 499.887 114.347 496.486 115.76C493.108 117.152 489.21 117.848 484.794 117.848C478.059 117.848 472.694 116.445 468.697 113.64C464.722 110.813 462.393 106.97 461.708 102.11L475.586 101.381C476.006 103.435 477.022 105.004 478.634 106.086C480.246 107.146 482.31 107.676 484.827 107.676C487.3 107.676 489.288 107.201 490.789 106.252C492.313 105.28 493.086 104.032 493.108 102.508C493.086 101.227 492.545 100.177 491.485 99.3602C490.425 98.5209 488.791 97.8804 486.583 97.4386L477.772 95.6826C472.804 94.6887 469.106 92.9658 466.677 90.5141C464.27 88.0623 463.066 84.9369 463.066 81.1378C463.066 77.8688 463.95 75.0526 465.716 72.6892C467.505 70.3258 470.011 68.5036 473.235 67.2225C476.481 65.9414 480.279 65.3008 484.629 65.3008C491.054 65.3008 496.111 66.6592 499.798 69.376C503.508 72.0928 505.672 75.7925 506.29 80.4752Z" fill="black"/>
</svg>
